<svg width="96" height="96" xmlns="http://www.w3.org/2000/svg" xmlns:xlink="http://www.w3.org/1999/xlink" xml:space="preserve" overflow="hidden"><g transform="translate(-640 -288)"><path d="M669 314C670.7 314 672 312.7 672 311L672 305C672 303.3 670.7 302 669 302 667.3 302 666 303.3 666 305L666 311C666 312.7 667.3 314 669 314Z" fill="#FFFFFF"/><path d="M660 356 676 356 676 364 660 364 660 356ZM660 344 676 344 676 352 660 352 660 344ZM660 332 676 332 676 340 660 340 660 332ZM696 332 696 340 680 340 680 332 696 332ZM716 332 716 340 700 340 700 332 716 332ZM716 352 700 352 700 344 716 344 716 352ZM716 364 700 364 700 356 716 356 716 364ZM680 352 680 344 696 344 696 352 680 352ZM680 364 680 356 696 356 696 364 680 364ZM654 370 722 370 722 326 654 326 654 370Z" fill="#FFFFFF"/><path d="M707 314C708.7 314 710 312.7 710 311L710 305C710 303.3 708.7 302 707 302 705.3 302 704 303.3 704 305L704 311C704 312.7 705.3 314 707 314Z" fill="#FFFFFF"/><path d="M714 308 714 311C714 314.9 710.9 318 707 318 703.1 318 700 314.9 700 311L700 308 676 308 676 311C676 314.9 672.9 318 669 318 665.1 318 662 314.9 662 311L662 308 654 308 654 322 722 322 722 308 714 308Z" fill="#FFFFFF"/></g></svg>